<?xml version="1.0" standalone="no"?>
<!DOCTYPE svg PUBLIC "-//W3C//DTD SVG 20010904//EN"
 "http://www.w3.org/TR/2001/REC-SVG-20010904/DTD/svg10.dtd">
<svg version="1.0" xmlns="http://www.w3.org/2000/svg"
 width="460.000000pt" height="460.000000pt" viewBox="0 0 460.000000 460.000000"
 preserveAspectRatio="xMidYMid meet">

<g transform="translate(0.000000,460.000000) scale(0.100000,-0.100000)"
fill="#000000" stroke="none">
<path d="M2882 4574 c-203 -60 -377 -185 -547 -396 -133 -166 -198 -355 -193
-564 l3 -109 79 3 c328 14 678 289 808 635 50 134 58 175 65 320 l6 137 -69
-1 c-43 0 -101 -9 -152 -25z"/>
<path d="M1296 3549 c-311 -33 -541 -146 -756 -373 -109 -114 -197 -265 -260
-441 -178 -503 -80 -1237 247 -1855 225 -424 452 -693 677 -799 34 -16 99 -37
144 -47 73 -16 96 -16 177 -6 51 6 124 24 162 38 329 127 481 160 647 143 103
-10 140 -19 256 -61 241 -86 307 -108 329 -108 23 0 24 1 17 63 -3 34 -9 107
-12 162 -4 55 -10 105 -14 110 -5 6 -13 39 -20 75 -17 92 -27 114 -71 154 -44
39 -63 78 -73 146 l-7 45 -121 75 c-159 97 -235 154 -243 180 -4 11 2 51 13
88 14 46 22 109 25 202 6 153 20 208 57 227 14 6 74 17 134 24 l108 12 -5 39
c-8 59 -20 68 -92 68 -57 0 -66 3 -85 28 -28 34 -23 74 18 162 94 202 101 239
58 291 l-28 33 4 170 3 171 -55 5 c-91 8 -134 54 -133 140 1 56 9 72 82 150
28 30 51 58 51 61 0 10 127 107 197 151 102 64 101 64 200 120 72 41 93 58 93
75 0 12 4 25 10 28 6 4 7 -1 3 -10 -3 -10 0 -21 8 -26 25 -16 39 -9 39 19 0
15 7 36 16 47 13 18 14 17 8 -15 l-7 -35 24 21 c19 17 43 23 113 28 63 5 104
15 145 33 59 28 70 29 259 20 56 -2 102 -3 102 -1 0 2 -29 19 -64 39 -187 104
-486 161 -716 136 -168 -18 -248 -37 -442 -107 -98 -35 -209 -69 -246 -74 -89
-14 -150 0 -348 78 -255 101 -402 125 -628 101z"/>
<path d="M4160 2891 c0 -6 4 -13 10 -16 6 -3 7 1 4 9 -7 18 -14 21 -14 7z"/>
<path d="M4201 2804 c0 -11 3 -14 6 -6 3 7 2 16 -1 19 -3 4 -6 -2 -5 -13z"/>
<path d="M4241 2684 c0 -11 3 -14 6 -6 3 7 2 16 -1 19 -3 4 -6 -2 -5 -13z"/>
<path d="M4262 2610 c0 -14 2 -19 5 -12 2 6 2 18 0 25 -3 6 -5 1 -5 -13z"/>
<path d="M4271 2564 c0 -11 3 -14 6 -6 3 7 2 16 -1 19 -3 4 -6 -2 -5 -13z"/>
<path d="M4282 2515 c0 -16 2 -22 5 -12 2 9 2 23 0 30 -3 6 -5 -1 -5 -18z"/>
<path d="M4292 2460 c0 -14 2 -19 5 -12 2 6 2 18 0 25 -3 6 -5 1 -5 -13z"/>
<path d="M4303 2365 c0 -27 2 -38 4 -22 2 15 2 37 0 50 -2 12 -4 0 -4 -28z"/>
<path d="M4314 2165 c0 -60 1 -84 3 -52 2 32 2 81 0 110 -2 29 -3 3 -3 -58z"/>
<path d="M4303 1970 c0 -36 2 -50 4 -32 2 17 2 47 0 65 -2 17 -4 3 -4 -33z"/>
<path d="M4292 1860 c0 -14 2 -19 5 -12 2 6 2 18 0 25 -3 6 -5 1 -5 -13z"/>
<path d="M4282 1790 c0 -19 2 -27 5 -17 2 9 2 25 0 35 -3 9 -5 1 -5 -18z"/>
<path d="M4271 1724 c0 -11 3 -14 6 -6 3 7 2 16 -1 19 -3 4 -6 -2 -5 -13z"/>
<path d="M4262 1675 c0 -16 2 -22 5 -12 2 9 2 23 0 30 -3 6 -5 -1 -5 -18z"/>
<path d="M4251 1624 c0 -11 3 -14 6 -6 3 7 2 16 -1 19 -3 4 -6 -2 -5 -13z"/>
<path d="M4242 1580 c0 -14 2 -19 5 -12 2 6 2 18 0 25 -3 6 -5 1 -5 -13z"/>
<path d="M4231 1534 c0 -11 3 -14 6 -6 3 7 2 16 -1 19 -3 4 -6 -2 -5 -13z"/>
<path d="M4221 1494 c0 -11 3 -14 6 -6 3 7 2 16 -1 19 -3 4 -6 -2 -5 -13z"/>
<path d="M4201 1424 c0 -11 3 -14 6 -6 3 7 2 16 -1 19 -3 4 -6 -2 -5 -13z"/>
<path d="M4141 1249 c-6 -18 -9 -34 -7 -36 2 -2 9 10 15 28 6 18 9 34 7 36 -2
2 -9 -10 -15 -28z"/>
<path d="M3320 1080 c-29 -62 -29 -91 0 -155 13 -27 25 -75 26 -105 2 -30 8
-86 15 -125 6 -38 13 -106 14 -150 1 -44 3 -93 4 -110 l3 -30 8 30 c4 17 8 64
9 106 1 57 6 82 19 100 12 15 26 74 41 164 19 113 29 152 57 202 l34 63 -25
16 c-32 21 -110 44 -150 44 -28 0 -34 -5 -55 -50z"/>
<path d="M4077 1093 c-4 -3 -7 -11 -7 -17 0 -6 5 -5 12 2 6 6 9 14 7 17 -3 3
-9 2 -12 -2z"/>
<path d="M4056 1045 c-9 -26 -7 -32 5 -12 6 10 9 21 6 23 -2 3 -7 -2 -11 -11z"/>
<path d="M4022 965 c-17 -37 -14 -45 4 -12 9 16 14 31 11 33 -2 2 -9 -7 -15
-21z"/>
<path d="M3986 893 c-6 -14 -5 -15 5 -6 7 7 10 15 7 18 -3 3 -9 -2 -12 -12z"/>
<path d="M3917 765 c-9 -19 -15 -35 -12 -35 7 0 37 61 33 66 -3 2 -12 -12 -21
-31z"/>
<path d="M3825 619 c-4 -6 -5 -12 -2 -15 2 -3 7 2 10 11 7 17 1 20 -8 4z"/>
</g>
</svg>
